<svg xmlns="http://www.w3.org/2000/svg" width="300" height="494.029" viewBox="0 0 300 494.029"><g transform="translate(-1354 -1542)"><path d="M-109.025-24.7q0-43.8,16.553-76.91T-47.4-152.548q28.523-17.827,63.667-17.827,28.014,0,51.188,11.715t36.418,31.579V-259h87.1V117.91h-87.1V77.163q-12.224,20.374-34.89,32.6T16.272,121.985q-35.144,0-63.667-18.081T-92.472,52.46Q-109.025,19.1-109.025-24.7Zm212.9.509q0-32.6-18.082-51.443T41.739-94.484q-25.976,0-44.058,18.591T-20.4-24.7q0,32.6,18.081,51.7t44.058,19.1q25.976,0,44.058-18.845T103.878-24.2Z" transform="translate(1463.025 1801)"/><path d="M-97.57-17.017a4.826,4.826,0,0,1-3.423-1.234,4,4,0,0,1-1.327-3.05,4.051,4.051,0,0,1,1.327-3.1,4.826,4.826,0,0,1,3.423-1.234A4.763,4.763,0,0,1-94.194-24.4a4.051,4.051,0,0,1,1.327,3.1,4,4,0,0,1-1.327,3.05A4.763,4.763,0,0,1-97.57-17.017Zm3.958,2.7V11.669h-7.963V-14.316Zm14.017,26.358a14.935,14.935,0,0,1-6.054-1.164,10.339,10.339,0,0,1-4.191-3.19,8.391,8.391,0,0,1-1.723-4.54h7.87a3.026,3.026,0,0,0,1.257,2.189,4.449,4.449,0,0,0,2.748.838,3.921,3.921,0,0,0,2.305-.582,1.782,1.782,0,0,0,.815-1.513,1.746,1.746,0,0,0-1.164-1.653A23.52,23.52,0,0,0-81.5,1.238,35.413,35.413,0,0,1-86.161-.136a8.046,8.046,0,0,1-3.213-2.282,6.219,6.219,0,0,1-1.35-4.214,7.156,7.156,0,0,1,1.234-4.075,8.309,8.309,0,0,1,3.632-2.911,13.909,13.909,0,0,1,5.7-1.071,11.436,11.436,0,0,1,7.707,2.422A9.422,9.422,0,0,1-69.21-5.841h-7.358a3.171,3.171,0,0,0-1.187-2.142,4.119,4.119,0,0,0-2.631-.792,3.638,3.638,0,0,0-2.142.536,1.71,1.71,0,0,0-.745,1.467A1.791,1.791,0,0,0-82.086-5.1a19.019,19.019,0,0,0,3.7,1.118,40.5,40.5,0,0,1,4.7,1.467,8.113,8.113,0,0,1,3.19,2.328,6.588,6.588,0,0,1,1.42,4.308A6.837,6.837,0,0,1-70.351,8.2a8.47,8.47,0,0,1-3.679,2.817A14.07,14.07,0,0,1-79.595,12.042ZM-45.926-7.7H-50.21V11.669h-7.963V-7.7h-2.887v-6.613h2.887v-.745q0-4.8,2.748-7.288t8.056-2.491q.885,0,1.3.047v6.752a4.569,4.569,0,0,0-3.213.652,3.586,3.586,0,0,0-.931,2.841v.233h4.284ZM-32.7,12.042a14.343,14.343,0,0,1-6.869-1.63,11.935,11.935,0,0,1-4.8-4.657,13.915,13.915,0,0,1-1.746-7.078,13.8,13.8,0,0,1,1.77-7.055,12.007,12.007,0,0,1,4.843-4.68,14.48,14.48,0,0,1,6.892-1.63,14.48,14.48,0,0,1,6.892,1.63,12.007,12.007,0,0,1,4.843,4.68A13.8,13.8,0,0,1-19.1-1.323,13.662,13.662,0,0,1-20.9,5.732a12.124,12.124,0,0,1-4.89,4.68A14.618,14.618,0,0,1-32.7,12.042Zm0-6.892a5.188,5.188,0,0,0,3.888-1.676,6.66,6.66,0,0,0,1.607-4.8,6.784,6.784,0,0,0-1.56-4.8A5.041,5.041,0,0,0-32.608-7.8a5.054,5.054,0,0,0-3.865,1.653,6.834,6.834,0,0,0-1.537,4.82,6.918,6.918,0,0,0,1.513,4.8A4.9,4.9,0,0,0-32.7,5.149ZM-9.231-9.985a10.5,10.5,0,0,1,3.493-3.376A9.006,9.006,0,0,1-1.081-14.6v8.429H-3.27A6.709,6.709,0,0,0-7.74-4.886q-1.49,1.281-1.49,4.494V11.669h-7.963V-14.316h7.963ZM6.37-1.37A15.53,15.53,0,0,1,7.883-8.4,11.289,11.289,0,0,1,12-13.059a10.759,10.759,0,0,1,5.821-1.63,10.224,10.224,0,0,1,4.68,1.071,8.528,8.528,0,0,1,3.33,2.887V-22.791H33.8v34.46H25.835V7.944a8.112,8.112,0,0,1-3.19,2.98,10,10,0,0,1-4.82,1.118A10.647,10.647,0,0,1,12,10.388a11.424,11.424,0,0,1-4.121-4.7A15.678,15.678,0,0,1,6.37-1.37Zm19.465.047a6.511,6.511,0,0,0-1.653-4.7A5.371,5.371,0,0,0,20.154-7.75a5.406,5.406,0,0,0-4.028,1.7,6.428,6.428,0,0,0-1.653,4.68,6.594,6.594,0,0,0,1.653,4.727A5.337,5.337,0,0,0,20.154,5.1,5.371,5.371,0,0,0,24.182,3.38,6.511,6.511,0,0,0,25.835-1.323ZM41.249-17.017a4.826,4.826,0,0,1-3.423-1.234A4,4,0,0,1,36.5-21.3a4.051,4.051,0,0,1,1.327-3.1,4.827,4.827,0,0,1,3.423-1.234A4.763,4.763,0,0,1,44.625-24.4a4.051,4.051,0,0,1,1.327,3.1,4,4,0,0,1-1.327,3.05A4.763,4.763,0,0,1,41.249-17.017Zm3.958,2.7V11.669H37.244V-14.316ZM60.342,4.218l5.635-18.534h8.475l-9.22,25.985H55.406l-9.22-25.985h8.522ZM99.972-1.743a20.331,20.331,0,0,1-.14,2.328H81.81a5.415,5.415,0,0,0,1.56,3.7,4.766,4.766,0,0,0,3.376,1.281,4.185,4.185,0,0,0,4.145-2.515h8.475a11.63,11.63,0,0,1-2.352,4.61,11.774,11.774,0,0,1-4.261,3.213,13.686,13.686,0,0,1-5.728,1.164,13.938,13.938,0,0,1-6.8-1.63A11.593,11.593,0,0,1,75.57,5.755a14.377,14.377,0,0,1-1.676-7.078A14.54,14.54,0,0,1,75.547-8.4a11.443,11.443,0,0,1,4.634-4.657,14.036,14.036,0,0,1,6.845-1.63,13.9,13.9,0,0,1,6.706,1.583,11.369,11.369,0,0,1,4.587,4.517A13.711,13.711,0,0,1,99.972-1.743Zm-8.149-2.1a4.094,4.094,0,0,0-1.4-3.26,5.143,5.143,0,0,0-3.493-1.211,5.044,5.044,0,0,0-3.376,1.164,5.171,5.171,0,0,0-1.7,3.306ZM109.8-9.985a10.5,10.5,0,0,1,3.493-3.376,9.006,9.006,0,0,1,4.657-1.234v8.429h-2.189a6.709,6.709,0,0,0-4.471,1.281Q109.8-3.605,109.8-.392V11.669h-7.963V-14.316H109.8Zm20.211,22.027a14.935,14.935,0,0,1-6.054-1.164,10.339,10.339,0,0,1-4.191-3.19,8.391,8.391,0,0,1-1.723-4.54h7.87a3.026,3.026,0,0,0,1.257,2.189,4.449,4.449,0,0,0,2.748.838,3.921,3.921,0,0,0,2.305-.582,1.783,1.783,0,0,0,.815-1.513,1.746,1.746,0,0,0-1.164-1.653A23.519,23.519,0,0,0,128.1,1.238a35.413,35.413,0,0,1-4.657-1.374,8.046,8.046,0,0,1-3.213-2.282,6.219,6.219,0,0,1-1.35-4.214,7.156,7.156,0,0,1,1.234-4.075,8.309,8.309,0,0,1,3.632-2.911,13.909,13.909,0,0,1,5.7-1.071,11.436,11.436,0,0,1,7.707,2.422,9.422,9.422,0,0,1,3.236,6.426h-7.358a3.171,3.171,0,0,0-1.187-2.142,4.119,4.119,0,0,0-2.631-.792,3.638,3.638,0,0,0-2.142.536,1.71,1.71,0,0,0-.745,1.467A1.791,1.791,0,0,0,127.516-5.1a19.019,19.019,0,0,0,3.7,1.118,40.5,40.5,0,0,1,4.7,1.467,8.113,8.113,0,0,1,3.19,2.328,6.588,6.588,0,0,1,1.42,4.308A6.837,6.837,0,0,1,139.252,8.2a8.47,8.47,0,0,1-3.679,2.817A14.07,14.07,0,0,1,130.008,12.042ZM147.1-17.017a4.827,4.827,0,0,1-3.423-1.234,4,4,0,0,1-1.327-3.05,4.051,4.051,0,0,1,1.327-3.1,4.827,4.827,0,0,1,3.423-1.234,4.763,4.763,0,0,1,3.376,1.234,4.051,4.051,0,0,1,1.327,3.1,4,4,0,0,1-1.327,3.05A4.763,4.763,0,0,1,147.1-17.017Zm3.958,2.7V11.669h-7.963V-14.316ZM168.985,4.917v6.752h-4.051a9.917,9.917,0,0,1-6.752-2.119q-2.422-2.119-2.422-6.915V-7.7h-3.167v-6.613h3.167v-6.333h7.963v6.333h5.216V-7.7h-5.216V2.728a2.182,2.182,0,0,0,.559,1.676,2.728,2.728,0,0,0,1.863.512Zm28.639-19.233-16.3,38.325h-8.569l5.961-13.225-10.571-25.1h8.894l6.007,16.252,5.961-16.252Z" transform="translate(1456.32 2012.019)"/></g></svg>